# xmcd CD database file
#
# Track frame offsets:
#       150
#       22242
#       51518
#       81854
#       100967
#       126443
#       138977
#       157530
#       183211
#       199204
#       217061
#       228141
#       241673
#       256949
#       289419
#
# Disc length: 4070 seconds
#
# Revision: 3
# Processed by: cddbd v1.5.2PL0 Copyright (c) Steve Scherf et al.
# Submitted via: jack 3.1.1
#
DISCID=d50fe40f
DTITLE=The Kris Lager Band - Swagadocious
DYEAR=2012
DGENRE=Blues
TTITLE0=Come to Boogie - Now You Know
TTITLE1=Sunny Day Souldier
TTITLE2=Daylight Come - There is No Place
TTITLE3=Gypsy Lady
TTITLE4=Get Back
TTITLE5=Prisoner of My Own Mind
TTITLE6=Couple Skate
TTITLE7=Kris Done Took My Woman
TTITLE8=What You Got
TTITLE9=I'm in the Mood
TTITLE10=Hold on Tight
TTITLE11=Strange Desire
TTITLE12=G's Groove
TTITLE13=Come and Gone
TTITLE14=Can't Go On
EXTD=
EXTT0=
EXTT1=
EXTT2=
EXTT3=
EXTT4=
EXTT5=
EXTT6=
EXTT7=w/ Magic Slim
EXTT8=
EXTT9=
EXTT10=
EXTT11=
EXTT12=
EXTT13=
EXTT14=
PLAYORDER=
